<?xml version="1.0" encoding="UTF-8" standalone="no"?>
<!-- Created with Inkscape (http://www.inkscape.org/) -->

<svg
   width="200mm"
   height="200mm"
   viewBox="0 0 200 200"
   version="1.1"
   id="svg1"
   xml:space="preserve"
   inkscape:version="1.4.4 (dcaf3e7d9e, 2026-05-05)"
   sodipodi:docname="lantern.svg"
   xmlns:inkscape="http://www.inkscape.org/namespaces/inkscape"
   xmlns:sodipodi="http://sodipodi.sourceforge.net/DTD/sodipodi-0.dtd"
   xmlns="http://www.w3.org/2000/svg"
   xmlns:svg="http://www.w3.org/2000/svg"><sodipodi:namedview
     id="namedview1"
     pagecolor="#ffffff"
     bordercolor="#000000"
     borderopacity="0.25"
     inkscape:showpageshadow="2"
     inkscape:pageopacity="0.0"
     inkscape:pagecheckerboard="0"
     inkscape:deskcolor="#d1d1d1"
     inkscape:document-units="mm"
     inkscape:zoom="1.5928451"
     inkscape:cx="397.0882"
     inkscape:cy="561.25984"
     inkscape:window-width="1886"
     inkscape:window-height="1992"
     inkscape:window-x="0"
     inkscape:window-y="0"
     inkscape:window-maximized="1"
     inkscape:current-layer="layer1"
     showguides="true"><sodipodi:guide
       position="100.14912,196.57922"
       orientation="1,0"
       id="guide1"
       inkscape:locked="false" /></sodipodi:namedview><defs
     id="defs1" /><g
     inkscape:label="Layer 1"
     inkscape:groupmode="layer"
     id="layer1"><path
       style="fill:#000000;stroke-width:0.917947"
       d="m 47.02399,194.67641 c -2.270677,-0.53101 -3.304776,-1.87776 -3.304776,-4.30388 0,-2.6625 1.072394,-4.23524 3.467448,-5.0853 0.61027,-0.2166 1.559984,-0.39592 2.110471,-0.39849 l 1.000889,-0.005 0.16138,-3.3492 c 0.175791,-3.64832 0.509001,-4.89415 1.879951,-7.02894 1.071709,-1.66882 3.929634,-4.03768 6.12389,-5.07591 l 1.622326,-0.76764 v -1.54058 -1.54061 l -5.748828,-3.16059 c -3.161856,-1.73831 -6.524325,-3.66383 -7.47216,-4.2789 -3.608542,-2.34169 -6.972165,-6.27464 -7.985232,-9.33679 -0.976187,-2.95068 -0.848019,-5.58719 0.540997,-11.12866 0.366452,-1.46195 1.427161,-5.81592 2.357132,-9.67547 0.92997,-3.85957 2.25385,-9.31398 2.941956,-12.12094 0.688105,-2.80693 1.873577,-7.68722 2.634382,-10.84503 0.760804,-3.15783 2.5058,-10.3347 3.877764,-15.948593 1.371967,-5.613902 2.747671,-11.259706 3.05712,-12.546223 0.716044,-2.97691 1.204474,-4.275656 2.3807,-6.330368 0.520167,-0.908649 0.870094,-1.745959 0.777614,-1.860662 -0.09986,-0.123969 -2.203346,-0.208664 -5.179686,-0.208664 h -5.011541 l 0.120291,-1.756977 c 0.141514,-2.066909 0.986823,-3.487422 2.864986,-4.814559 2.183144,-1.542646 3.348791,-1.721733 11.206428,-1.721733 h 6.889038 l 0.185315,-0.903753 c 0.23332,-1.137851 1.344202,-2.815108 2.480078,-3.744525 1.963813,-1.606867 4.339292,-2.326949 8.302832,-2.516848 l 2.714141,-0.130036 -0.07884,-2.04075 -0.07882,-2.040749 -1.721932,-0.106327 c -2.375648,-0.14669 -2.626179,-0.423892 -2.498376,-2.764422 0.07339,-1.343063 0.257103,-2.042192 0.715193,-2.720843 1.498168,-2.219544 4.14932,-3.611236 7.771566,-4.079598 1.255236,-0.162303 6.199244,-0.217507 15.299093,-0.170819 l 13.44452,0.06898 1.73198,0.515989 c 3.96195,1.180345 6.13141,3.365254 6.38259,6.428048 0.11098,1.353621 0.0513,1.626882 -0.46626,2.12749 -0.50123,0.484963 -0.84049,0.584282 -2.17918,0.637945 l -1.58557,0.06357 -0.0789,2.04075 -0.079,2.040747 2.71415,0.133803 c 3.27299,0.161351 4.20568,0.351111 6.17575,1.256504 2.35141,1.080614 3.84237,2.818771 4.56353,5.320076 l 0.16859,0.58478 h 6.91922 c 6.27782,0 7.05896,0.04007 8.42676,0.432387 3.35475,0.962201 5.44823,3.244565 5.67002,6.181599 l 0.12687,1.679279 h -5.03751 c -4.08552,0 -5.06591,0.05681 -5.18798,0.300662 -0.0828,0.16537 0.22281,0.954825 0.67907,1.754351 1.11645,1.956344 1.56637,3.375842 2.85349,9.00223 1.13301,4.952727 3.95578,16.639875 6.34313,26.262459 0.75443,3.04087 2.11748,8.59098 3.029,12.33358 0.91154,3.7426 2.62718,10.77592 3.81261,15.62959 1.93584,7.92635 2.15487,9.08473 2.15123,11.37668 -0.005,2.92267 -0.43689,4.46373 -1.93315,6.89218 -2.24239,3.63939 -5.33907,6.06884 -13.16131,10.3254 -2.97508,1.61892 -5.67127,3.12319 -5.99158,3.34284 -0.47068,0.32277 -0.593,0.67844 -0.63778,1.8547 l -0.0555,1.45535 1.50538,0.65129 c 3.31102,1.43246 5.86955,3.79932 7.34241,6.79244 0.6193,1.25854 0.72509,1.87495 0.86627,5.04857 l 0.16081,3.61502 1.4946,0.13984 c 1.88773,0.17661 3.509,1.02299 4.37875,2.2859 0.5535,0.80371 0.64545,1.246 0.64545,3.1051 0,2.37495 -0.34738,3.0622 -2.03144,4.01878 l -0.78317,0.44484 -53.03162,0.0359 c -29.167377,0.0198 -53.354475,-0.0394 -53.749078,-0.13179 z m 84.95188,-29.7664 c 0.079,-1.9542 0.18624,-2.41977 0.67386,-2.92391 0.31899,-0.32977 3.8103,-2.4656 7.75849,-4.74624 7.62192,-4.40275 9.08772,-5.49728 10.67952,-7.97429 1.12137,-1.74498 1.73683,-4.09849 1.55706,-5.95415 -0.0792,-0.8187 -1.14554,-5.55543 -2.36942,-10.52607 -1.22388,-4.97063 -2.53595,-10.32937 -2.91573,-11.90829 -0.37977,-1.57889 -2.50109,-10.0476 -4.71405,-18.81933 -2.21294,-8.771707 -4.60461,-18.29302 -5.31479,-21.158447 -0.71021,-2.865427 -1.4728,-5.544797 -1.69469,-5.954137 -0.54231,-1.000542 -2.20766,-2.301083 -3.56636,-2.785106 -1.06013,-0.377664 -2.47594,-0.395482 -31.77668,-0.39994 l -30.667123,-0.0048 -1.432368,0.547173 c -1.50185,0.573712 -2.890584,1.783974 -3.377781,2.943675 -0.151529,0.360681 -0.971663,3.478683 -1.822531,6.928893 -0.850867,3.450214 -2.411169,9.670166 -3.467341,13.822115 -3.481603,13.686664 -5.234756,20.659834 -6.629369,26.368324 -0.757186,3.09934 -2.206752,8.98438 -3.221263,13.07785 -1.67095,6.74216 -1.830886,7.6228 -1.699274,9.3565 0.235121,3.09723 1.427717,5.21356 4.259035,7.55792 1.48776,1.23186 2.723437,1.97844 11.372758,6.87134 4.632547,2.62063 4.894571,2.92377 5.034651,5.82469 l 0.105285,2.1804 h 31.567111 31.5671 z m -57.081646,-1.63178 c -0.264298,-0.80726 0.04634,-3.97119 0.448549,-4.56905 0.43451,-0.64581 1.631581,-1.64299 2.357425,-1.96373 0.305134,-0.13485 2.052733,-0.29407 3.883547,-0.35384 l 3.328749,-0.10866 0.138701,-2.6964 c 0.15296,-2.97374 0.376038,-3.414 2.21635,-4.37414 0.916469,-0.47815 0.92469,-0.47847 13.040415,-0.47847 12.11845,0 12.12373,2.1e-4 13.05092,0.47918 1.6621,0.85864 2.05013,1.65344 2.20583,4.51805 l 0.13871,2.55178 3.32873,0.10866 c 3.49689,0.11415 3.97674,0.22544 5.18353,1.20209 1.11044,0.89866 1.33527,1.57545 1.33527,4.01928 v 2.21897 H 100.31324 75.075508 Z m -1.833961,-12.14952 c -12.522193,-9.35232 -15.91425,-20.63957 -11.133884,-37.04863 0.956154,-3.28207 2.763208,-7.76015 6.267292,-15.531024 4.138377,-9.177517 5.161286,-12.365566 5.745783,-17.907636 0.250228,-2.372543 0.557522,-3.272235 1.236369,-3.619712 0.167862,-0.08592 1.771943,-0.157683 3.564612,-0.159478 l 3.259397,-0.0033 -0.0031,1.754344 c -0.0031,2.260005 -0.672303,6.835561 -1.401809,9.589431 -0.840899,3.17436 -1.557246,5.005915 -5.086244,13.004395 -6.193066,14.03662 -7.723781,19.1272 -7.736991,25.73039 -0.0082,4.14066 0.676548,7.20024 2.325354,10.38887 1.806566,3.49372 4.201051,6.28331 7.862959,9.16045 1.792514,1.40835 1.86736,1.50816 1.67486,2.2328 -0.110833,0.4172 -0.279492,1.33238 -0.374803,2.03374 l -0.173304,1.27521 -1.766146,0.48161 -1.766136,0.48163 z m 50.514227,1.46958 c -1.71949,-0.47665 -2.18446,-0.81544 -2.18446,-1.59163 0,-0.35872 -0.14927,-1.20641 -0.33179,-1.88369 l -0.3318,-1.23144 2.22478,-1.75842 c 4.7341,-3.74175 7.33107,-7.34669 9.00278,-12.49717 0.58697,-1.80842 0.65583,-2.49932 0.65709,-6.59209 9.2e-4,-3.81152 -0.10208,-5.01291 -0.62111,-7.22338 -1.11167,-4.73494 -2.78386,-9.30931 -6.60989,-18.08169 -5.10029,-11.694109 -6.29813,-15.635169 -6.67533,-21.96271 l -0.17471,-2.930716 3.41181,0.05992 c 4.3233,0.07597 4.28312,0.04466 4.71879,3.67498 0.69732,5.810543 1.77185,9.151747 5.84838,18.1852 3.49235,7.738956 4.59921,10.513866 5.97429,14.977836 4.32907,14.05359 2.3655,24.55686 -6.2433,33.39574 -1.23275,1.26567 -6.93101,5.86298 -7.22787,5.83133 -0.0851,-0.009 -0.73203,-0.17653 -1.43766,-0.37213 z M 63.654368,51.181742 C 61.466337,49.425094 60.376531,47.959085 59.818657,46.021924 59.571896,45.165079 59.514208,42.174434 59.601308,34.754694 59.729104,23.869027 59.763763,23.578042 61.373962,19.87504 62.962046,16.222898 65.873851,12.670859 69.641619,9.7895309 74.495897,6.0773132 79.930923,3.7857643 86.903022,2.5116598 89.443639,2.0473785 108.02923,1.8321419 111.81988,2.2230987 c 12.44776,1.2838322 23.33352,8.2136563 27.31133,17.3862813 1.71895,3.963777 1.74429,4.167249 1.87773,15.078924 0.0863,7.068789 0.0286,10.382031 -0.19587,11.210684 -0.50778,1.875043 -1.85277,3.674677 -4.06127,5.43409 l -2.01216,1.603008 -1.47363,-1.087707 c -0.81051,-0.598238 -2.1987,-1.490534 -3.08489,-1.98288 -0.88616,-0.492345 -1.57273,-0.980431 -1.52566,-1.084639 0.0471,-0.104207 0.82412,-0.647283 1.72677,-1.206838 2.93106,-1.816919 2.7971,-1.22344 2.7971,-12.394032 0,-9.462206 -0.0143,-9.717664 -0.6501,-11.589309 -0.78413,-2.308426 -2.64187,-5.413635 -4.31232,-7.208168 C 127.54255,15.658064 125.88,14.25633 124.52236,13.267546 120.71514,10.49468 116.09429,8.7455195 110.38891,7.9175136 109.10401,7.7310421 105.84835,7.6423011 100.30796,7.642734 93.435189,7.6432731 91.74721,7.705526 89.766921,8.0314206 84.103109,8.9635425 79.420036,10.839687 75.611117,13.702557 c -3.704614,2.78447 -6.122158,5.900645 -7.506279,9.675476 -0.596658,1.627237 -0.628528,2.125078 -0.733152,11.452976 l -0.109372,9.75179 0.70905,1.110969 c 0.499524,0.782677 1.207674,1.407805 2.39644,2.115487 1.927111,1.147225 1.923035,1.170526 -0.413552,2.363271 -0.774456,0.395333 -1.964612,1.154939 -2.64479,1.688011 -0.680181,0.533073 -1.318965,0.969225 -1.419523,0.969225 -0.100554,0 -1.106562,-0.741609 -2.235565,-1.64802 z"
       id="path1" /></g></svg>
