<?xml version="1.0" encoding="UTF-8" standalone="no"?>
<!-- Created with Inkscape (http://www.inkscape.org/) -->

<svg
   width="118.04375mm"
   height="239.87801mm"
   viewBox="0 0 118.04375 239.87801"
   version="1.1"
   id="svg1"
   xml:space="preserve"
   xmlns="http://www.w3.org/2000/svg"
   xmlns:svg="http://www.w3.org/2000/svg"><defs
     id="defs1" /><g
     id="layer1"
     transform="translate(-47.547105,-26.271567)"><path
       style="fill:#000000"
       d="m 55.92052,265.98104 c -2.165798,-0.66071 -3.152133,-2.33635 -3.152133,-5.35503 0,-3.31276 1.022862,-5.26963 3.307292,-6.32728 0.582083,-0.2695 1.48793,-0.49261 2.012992,-0.49581 l 0.954659,-0.006 0.153925,-4.16719 c 0.167673,-4.53936 0.485491,-6.08946 1.793121,-8.74563 1.022208,-2.0764 3.74813,-5.02381 5.841037,-6.31562 l 1.547391,-0.95511 v -1.91685 -1.91686 l -5.483297,-3.93251 c -3.015814,-2.16289 -6.222978,-4.55867 -7.127032,-5.32397 -3.44187,-2.9136 -6.650132,-7.80708 -7.616407,-11.61712 -0.9311,-3.67133 -0.808851,-6.95177 0.516009,-13.84664 0.349525,-1.81901 1.361242,-7.23635 2.248259,-12.03854 0.887017,-4.80219 2.149749,-11.58875 2.806072,-15.08125 0.656323,-3.4925 1.78704,-9.56469 2.512705,-13.49375 0.725664,-3.92906 2.39006,-12.85875 3.698656,-19.84375 1.308597,-6.985 2.620759,-14.00969 2.915916,-15.61042 0.68297,-3.70396 1.148842,-5.31991 2.270739,-7.87644 0.496141,-1.13058 0.829905,-2.17238 0.741696,-2.3151 -0.09525,-0.15412 -2.101577,-0.2595 -4.940443,-0.2595 h -4.780065 l 0.114741,-2.18609 c 0.13498,-2.57171 0.941242,-4.33916 2.732658,-5.99043 2.082306,-1.91941 3.194112,-2.142235 10.688819,-2.142235 h 6.570843 l 0.176757,-1.124479 c 0.222542,-1.415749 1.282115,-3.502648 2.365525,-4.659058 1.873109,-1.999319 4.138868,-2.895267 7.919338,-3.131544 l 2.58878,-0.161797 -0.0752,-2.539165 -0.0752,-2.539166 -1.6424,-0.132292 c -2.26592,-0.182515 -2.50488,-0.52742 -2.38298,-3.439583 0.07,-1.67108 0.24523,-2.540961 0.68216,-3.38536 1.42897,-2.761628 3.95767,-4.493217 7.41261,-5.075968 1.19726,-0.201944 5.91291,-0.270628 14.592457,-0.212539 l 12.82356,0.08582 1.65198,0.642011 c 3.77894,1.468623 5.8482,4.187159 6.08779,7.997986 0.10589,1.684217 0.0488,2.024216 -0.44473,2.647092 -0.47807,0.603406 -0.80167,0.726982 -2.07854,0.79375 l -1.51233,0.07908 -0.0752,2.539166 -0.0752,2.539165 2.58878,0.16648 c 3.12183,0.200759 4.01143,0.436864 5.89053,1.563385 2.24277,1.344536 3.66488,3.507206 4.35273,6.619409 l 0.16081,0.727604 h 6.59962 c 5.98787,0 6.73291,0.04987 8.03753,0.537989 3.19981,1.197202 5.19659,4.036989 5.40814,7.691339 l 0.12096,2.08942 h -4.8048 c -3.89682,0 -4.83193,0.0707 -4.94836,0.37409 -0.0789,0.20576 0.21252,1.18802 0.64771,2.18282 1.06486,2.43415 1.49402,4.20033 2.72168,11.20087 1.08067,6.16234 3.77307,20.70387 6.05016,32.67659 0.71959,3.78355 2.01968,10.68917 2.88909,15.34584 0.86942,4.65667 2.50584,13.40776 3.63651,19.44687 1.84643,9.86219 2.05535,11.3035 2.05188,14.15521 -0.004,3.63648 -0.41672,5.55392 -1.84387,8.57548 -2.13882,4.52827 -5.09247,7.55104 -12.55341,12.84719 -2.83766,2.01431 -5.40933,3.88598 -5.71484,4.15927 -0.44895,0.40161 -0.5656,0.84412 -0.60833,2.30768 l -0.0529,1.81079 1.43586,0.81035 c 3.15809,1.78232 5.59843,4.72725 7.00327,8.45137 0.59071,1.56592 0.69159,2.33288 0.82625,6.28162 l 0.15338,4.49792 1.42559,0.17399 c 1.80054,0.21974 3.34691,1.27282 4.17649,2.84419 0.52793,0.99999 0.61563,1.55031 0.61563,3.86347 0,2.95499 -0.33134,3.81007 -1.93761,5.00027 l -0.74698,0.5535 -50.58219,0.0448 c -27.820192,0.0246 -50.890124,-0.0492 -51.266503,-0.16398 z m 81.02811,-37.03631 c 0.0753,-2.43148 0.17763,-3.01075 0.64273,-3.63802 0.30425,-0.41033 3.63431,-3.06778 7.40013,-5.90543 7.26986,-5.47805 8.66799,-6.83989 10.18626,-9.92188 1.06957,-2.17115 1.65661,-5.09947 1.48515,-7.40833 -0.0756,-1.01865 -1.09265,-6.91224 -2.25999,-13.09688 -1.16735,-6.18463 -2.41882,-12.85213 -2.78105,-14.81666 -0.36223,-1.96453 -2.38557,-12.50157 -4.49631,-23.41563 -2.11074,-10.91406 -4.39194,-22.76078 -5.06933,-26.32604 -0.6774,-3.56526 -1.40477,-6.89901 -1.6164,-7.40833 -0.51726,-1.24491 -2.10569,-2.86308 -3.40164,-3.46532 -1.01118,-0.4699 -2.36158,-0.49207 -30.30899,-0.49762 l -29.250653,-0.006 -1.366209,0.68081 c -1.432483,0.71383 -2.757072,2.21967 -3.221765,3.66261 -0.144527,0.44877 -0.926785,4.32829 -1.738352,8.62116 -0.811567,4.29286 -2.299802,12.03193 -3.307189,17.19792 -3.320794,17.02938 -4.992972,25.70563 -6.323171,32.80833 -0.722212,3.8563 -2.104826,11.17865 -3.072477,16.27188 -1.593772,8.38882 -1.746321,9.48454 -1.620788,11.64166 0.224263,3.85368 1.361774,6.48689 4.062318,9.4038 1.419042,1.53273 2.597647,2.46166 10.847467,8.54956 4.418579,3.26066 4.668499,3.63784 4.80211,7.24726 l 0.100425,2.71292 h 30.109084 30.10908 z m -54.445157,-2.03031 c -0.25209,-1.00442 0.0442,-4.94109 0.42783,-5.68497 0.41444,-0.80354 1.55622,-2.04424 2.24854,-2.44334 0.29104,-0.16777 1.95792,-0.36589 3.70417,-0.44025 l 3.175,-0.13521 0.13229,-3.35493 c 0.1459,-3.70002 0.35867,-4.24781 2.11398,-5.44246 0.87414,-0.59494 0.88198,-0.59532 12.438107,-0.59532 11.55872,0 11.56377,2.5e-4 12.44813,0.59622 1.58532,1.06835 1.95544,2.05726 2.10395,5.62149 l 0.13229,3.175 3.175,0.13521 c 3.33537,0.14203 3.79307,0.2805 4.94411,1.49567 1.05915,1.11816 1.2736,1.96023 1.2736,5.00093 v 2.7609 H 106.74843 82.676383 Z m -1.749254,-15.11683 c -11.943814,-11.63647 -15.179195,-25.68043 -10.619628,-46.0971 0.911991,-4.08368 2.63558,-9.65545 5.977817,-19.32421 3.94723,-11.41896 4.922893,-15.38564 5.480395,-22.28126 0.23867,-2.952 0.53177,-4.07142 1.17926,-4.50376 0.16011,-0.10691 1.6901,-0.1962 3.39997,-0.19843 l 3.10885,-0.004 -0.003,2.18281 c -0.003,2.81198 -0.64125,8.50503 -1.33706,11.93148 -0.80206,3.94965 -1.48532,6.22852 -4.85132,16.1805 -5.907016,17.46481 -7.367031,23.79869 -7.37963,32.01458 -0.0079,5.15195 0.645299,8.95878 2.21795,12.92617 1.723123,4.34699 4.00701,7.8179 7.49978,11.39773 1.70972,1.75233 1.78111,1.87649 1.5975,2.77812 -0.10571,0.5191 -0.26658,1.6578 -0.35749,2.53046 l -0.1653,1.58664 -1.68457,0.59925 -1.68456,0.59926 z m 48.181061,1.82849 c -1.64005,-0.59305 -2.08356,-1.01459 -2.08356,-1.98034 0,-0.44636 -0.14241,-1.50106 -0.31647,-2.34377 l -0.31647,-1.5322 2.12204,-2.18789 c 4.51544,-4.65557 6.99245,-9.14097 8.58695,-15.54935 0.55986,-2.2501 0.62554,-3.10977 0.62673,-8.20209 0.001,-4.74242 -0.0974,-6.23723 -0.59242,-8.98757 -1.06032,-5.89138 -2.65527,-11.58295 -6.30458,-22.49784 -4.86473,-14.55018 -6.00725,-19.45378 -6.36701,-27.32671 l -0.16664,-3.64649 3.25422,0.0746 c 4.1236,0.0945 4.08529,0.0556 4.50084,4.57253 0.66511,7.22966 1.69001,11.38689 5.57825,22.6266 3.33105,9.62907 4.38677,13.08169 5.69834,18.63593 4.12913,17.48594 2.25625,30.55445 -5.95493,41.55206 -1.1758,1.5748 -6.61088,7.29489 -6.89402,7.25553 -0.0812,-0.0113 -0.69822,-0.21963 -1.37127,-0.46302 z M 71.782766,87.440334 C 69.695798,85.254658 68.65633,83.4306 68.124222,81.020322 67.888859,79.954207 67.833834,76.23315 67.916912,67.001271 68.038799,53.456972 68.071863,53.094919 69.60769,48.487525 c 1.514733,-4.544115 4.292047,-8.963678 7.885787,-12.548719 4.630066,-4.618861 9.814056,-7.470081 16.464126,-9.055363 2.42327,-0.577673 20.150427,-0.845478 23.765997,-0.359036 11.87282,1.597385 22.25578,10.219696 26.04988,21.632574 1.63955,4.931859 1.66372,5.185026 1.79098,18.761685 0.0824,8.795215 0.0272,12.917659 -0.18681,13.948695 -0.48433,2.332991 -1.76719,4.572153 -3.87369,6.76127 l -1.91923,1.994515 -1.40557,-1.35336 c -0.77306,-0.744348 -2.09713,-1.854571 -2.94238,-2.467163 -0.84524,-0.612591 -1.50009,-1.219885 -1.4552,-1.349542 0.0449,-0.129657 0.78604,-0.805371 1.64702,-1.501587 2.79567,-2.26067 2.66791,-1.522245 2.66791,-15.421057 0,-11.773183 -0.0137,-12.09103 -0.62008,-14.419791 -0.74794,-2.87222 -2.51985,-6.735822 -4.11315,-8.968637 -0.64321,-0.901381 -2.22896,-2.645466 -3.52389,-3.875744 -3.63138,-3.450089 -8.0388,-5.626451 -13.48066,-6.656682 -1.22555,-0.232016 -4.33084,-0.34243 -9.61534,-0.34189 -6.55533,6.7e-4 -8.165347,0.07811 -10.054167,0.483616 -5.40221,1.159776 -9.86898,3.494135 -13.50197,7.056211 -3.533504,3.464527 -5.839384,7.341775 -7.159575,12.038542 -0.569101,2.024659 -0.599498,2.64409 -0.69929,14.250161 l -0.104328,12.133494 0.676298,1.382303 c 0.476452,0.973831 1.151894,1.751636 2.285753,2.632158 1.838102,1.427414 1.834213,1.456406 -0.394451,2.940458 -0.738685,0.491885 -1.873869,1.43701 -2.522631,2.100278 -0.648763,0.663267 -1.258043,1.205941 -1.353957,1.205941 -0.09591,0 -1.055452,-0.922735 -2.132306,-2.050521 z"
       id="path1" /></g></svg>
